<svg xmlns="http://www.w3.org/2000/svg" viewBox="0 0 640 400" role="img" aria-labelledby="title">
  <title id="title">Warehouse receiving area with boxes ready for inspection</title>
  <rect width="640" height="400" fill="#f2f1eb"/>
  <rect y="270" width="640" height="130" fill="#1a2426"/>
  <path d="M0 270h640" stroke="#1a2426" stroke-width="10"/>
  <rect x="44" y="72" width="218" height="154" fill="#ffffff" stroke="#1a2426" stroke-width="6"/>
  <path d="M44 118h218M96 72v154M206 72v154" stroke="#1a2426" stroke-width="4" opacity=".22"/>
  <rect x="316" y="112" width="122" height="92" fill="#ff6b35" stroke="#1a2426" stroke-width="6"/>
  <path d="M316 148h122M377 112v92" stroke="#1a2426" stroke-width="4" opacity=".28"/>
  <rect x="456" y="154" width="132" height="78" fill="#f9f8f4" stroke="#1a2426" stroke-width="6"/>
  <path d="M456 190h132M522 154v78" stroke="#1a2426" stroke-width="4" opacity=".25"/>
  <rect x="84" y="250" width="472" height="38" fill="#ff6b35" stroke="#1a2426" stroke-width="6"/>
  <circle cx="154" cy="310" r="23" fill="#f9f8f4" stroke="#1a2426" stroke-width="6"/>
  <circle cx="486" cy="310" r="23" fill="#f9f8f4" stroke="#1a2426" stroke-width="6"/>
  <rect x="382" y="54" width="172" height="30" rx="4" fill="#1a2426"/>
  <rect x="402" y="62" width="96" height="6" fill="#ff6b35"/>
  <rect x="402" y="74" width="132" height="4" fill="#f9f8f4" opacity=".7"/>
</svg>
